<?xml version="1.0" encoding="UTF-8"?>
<svg id="Layer_1" data-name="Layer 1" xmlns="http://www.w3.org/2000/svg" version="1.1" viewBox="0 0 1280 1280">
  <defs>
    <style>
      .cls-1 {
        fill: #e5343f;
        stroke-width: 0px;
      }
    </style>
  </defs>
  <path class="cls-1" d="M277.5,1c-20.2,3-40.9,13-64.5,31.3-13.9,10.9-44.4,41.3-72.7,72.7-14.8,16.4-32.4,34.4-49.4,50.6-14.5,13.8-31.6,30.5-37.9,37C-2.3,249.8-13.7,296.4,16.5,342.6c18.4,28.3,38.8,50.1,92.5,99.2,23,20.9,59.9,56.9,117.5,114.4l84,83.8-136.1,136.2c-74.8,75-138.3,139-141.1,142.3-40,47.7-43.6,87.9-12.1,134.8,12.6,18.8,30.8,37.6,72.8,75.4,27.3,24.6,36.1,33.4,70.3,70.5,33.6,36.4,57.5,57.6,77.9,69.1,31.5,17.6,64.2,15.1,99.6-7.7,17.8-11.4,28.4-21.6,162.9-156l135.3-135.1,134.7,134.6c74.2,74,138.7,138,143.5,142.1,17.8,15.4,36.5,26.2,53.3,30.9,6.3,1.8,10.7,2.3,21,2.3,17,.1,26.4-2.2,44-10.9,24.3-12,44.8-30,84.9-74.5,30.5-34,33.9-37.4,70.1-71,41.9-38.8,57.8-55.9,71.6-76.9,8.2-12.4,12.5-22.4,15-34.6,2.2-10.4,2.3-16.2.8-27.2-2.7-19.8-12.6-40-31.2-63.8-4.3-5.5-60.4-62.4-142.6-144.8l-135.6-135.7,136.1-136.3c74.8-74.9,138.3-138.9,141.1-142.2,15.1-18,25-35,29.9-51.1,2.4-7.7,2.7-10.7,2.8-22.4,0-15.2-2.1-25.8-7.8-38.5-12.4-27.7-28.8-46.7-83.6-96.5-33.8-30.8-35.8-32.7-69.2-69-34.5-37.5-51.9-53.6-72-66.7-19-12.5-31.9-16.7-50.8-16.7-16.4-.1-27.9,2.8-44,10.9-25.3,12.8-27.5,14.7-176.8,163.9l-135.2,135.1-90.9-91c-63.2-63.3-97.6-98.6-113.1-116-36.7-41.2-63.8-66.9-85.5-81.3C324.5,5,299.5-2.3,277.5,1Z"/>
</svg>