<?xml version="1.0" encoding="UTF-8"?>
<svg id="Layer_2" data-name="Layer 2" xmlns="http://www.w3.org/2000/svg" xmlns:xlink="http://www.w3.org/1999/xlink" viewBox="0 0 138.23 100.84">
  <defs>
    <style>
      .cls-1 {
        fill: #190005;
      }

      .cls-2 {
        fill: #b31d28;
      }

      .cls-3 {
        fill: url(#linear-gradient-8);
      }

      .cls-4 {
        fill: url(#linear-gradient-7);
      }

      .cls-5 {
        fill: url(#linear-gradient-5);
      }

      .cls-6 {
        fill: url(#linear-gradient-6);
      }

      .cls-7 {
        fill: url(#linear-gradient-9);
      }

      .cls-8 {
        fill: url(#linear-gradient-4);
      }

      .cls-9 {
        fill: url(#linear-gradient-3);
      }

      .cls-10 {
        fill: url(#linear-gradient-2);
      }

      .cls-11 {
        fill: url(#radial-gradient);
      }

      .cls-12 {
        fill: url(#linear-gradient);
      }

      .cls-13 {
        fill: #8b171a;
      }
    </style>
    <linearGradient id="linear-gradient" x1="3.48" y1="128.16" x2="3.48" y2="61.17" gradientUnits="userSpaceOnUse">
      <stop offset="0" stop-color="#761312"/>
      <stop offset="1" stop-color="#b31d28"/>
    </linearGradient>
    <linearGradient id="linear-gradient-2" x1="25.71" y1="128.16" x2="25.71" y2="61.17" xlink:href="#linear-gradient"/>
    <linearGradient id="linear-gradient-3" x1="58.84" y1="128.16" x2="58.84" y2="61.17" xlink:href="#linear-gradient"/>
    <linearGradient id="linear-gradient-4" x1="79.99" y1="128.16" x2="79.99" y2="61.17" xlink:href="#linear-gradient"/>
    <linearGradient id="linear-gradient-5" x1="93.21" y1="128.16" x2="93.21" y2="61.17" xlink:href="#linear-gradient"/>
    <linearGradient id="linear-gradient-6" x1="116.14" y1="128.16" x2="116.14" y2="61.17" xlink:href="#linear-gradient"/>
    <linearGradient id="linear-gradient-7" x1="76.96" y1="39.07" x2="39.05" y2="6.02" gradientUnits="userSpaceOnUse">
      <stop offset="0" stop-color="#b31d28"/>
      <stop offset="1" stop-color="#8b171a"/>
    </linearGradient>
    <linearGradient id="linear-gradient-8" x1="80.49" y1="39.51" x2="115.6" y2="24.32" xlink:href="#linear-gradient-7"/>
    <linearGradient id="linear-gradient-9" x1="74.21" y1="38.33" x2="17.55" y2="29.77" xlink:href="#linear-gradient-7"/>
    <radialGradient id="radial-gradient" cx="135.08" cy="58.82" fx="135.08" fy="58.82" r="3.15" gradientUnits="userSpaceOnUse">
      <stop offset="0" stop-color="#b31d28"/>
      <stop offset=".37" stop-color="#af1c26"/>
      <stop offset=".65" stop-color="#a61b23"/>
      <stop offset=".9" stop-color="#96181e"/>
      <stop offset="1" stop-color="#8d171b"/>
    </radialGradient>
  </defs>
  <g id="Layer_1-2" data-name="Layer 1">
    <g>
      <g>
        <path class="cls-12" d="M0,47.05h6.96v37.68H0v-37.68Z"/>
        <path class="cls-10" d="M40.66,81.49c0,9.6-7.32,15.12-15.18,15.12-4.02,0-8.94-1.68-12.24-5.76l5.1-3.72c1.2,1.68,3.9,3.6,6.84,3.6,6.36,0,9.6-4.14,9.6-8.58v-1.92c-2.64,2.94-5.64,4.5-9.9,4.5-7.5,0-14.1-5.64-14.1-14.82s7.08-15,14.82-15c3.9,0,7.02,1.5,9.06,4.2h.12v-3.42h5.88v25.8ZM26.13,78.85c5.04,0,8.64-4.02,8.64-9s-3.9-9.06-8.64-9.06-8.76,4.02-8.76,9,3.48,9.06,8.76,9.06Z"/>
        <path class="cls-9" d="M45.58,55.69h6.24v3.66h.12c1.74-2.7,4.92-4.44,8.88-4.44,6.12,0,11.28,5.1,11.28,12.3v17.52h-6.24v-16.14c0-5.28-2.76-7.44-6.9-7.44s-7.14,2.58-7.14,7.32v16.26h-6.24v-29.04Z"/>
        <path class="cls-8" d="M76.87,55.69h6.24v29.04h-6.24v-29.04Z"/>
        <path class="cls-5" d="M85.35,55.69h3.54v-7.68l6.24-1.74v9.42h4.98v5.88h-4.98v11.46c0,3.12.72,4.56,2.58,5.64l3.36,1.92-2.76,4.92c-6.42-3.06-9.42-5.28-9.42-11.34v-12.6h-3.54v-5.88Z"/>
        <path class="cls-6" d="M130.12,78.43c-3.48,4.38-8.28,7.02-13.5,7.08-10.14,0-16.02-7.62-16.02-15.3s5.88-15.3,16.02-15.3c6.06,0,15.06,4.98,15.06,16.32v1.14h-24.12c.36,4.44,4.5,7.62,8.88,7.62,3.36,0,6.24-1.62,8.4-4.5l5.28,2.94ZM124.36,67.21c-1.32-4.44-4.62-6.78-8.58-6.78s-7.2,2.46-8.22,6.78h16.8Z"/>
      </g>
      <g>
        <path class="cls-2" d="M79.99,42.76c1.92,0,3.48,1.56,3.48,3.48s-1.56,3.48-3.48,3.48-3.48-1.56-3.48-3.48,1.56-3.48,3.48-3.48Z"/>
        <path class="cls-4" d="M81.45,46.2c0-14.28-12.76-20.85-25.1-27.2-7.69-3.96-14.96-7.7-19.12-13.1l-2.65,2.04c4.62,5.99,12.56,10.08,20.24,14.03,11.98,6.16,23.29,11.99,23.29,24.23h3.34Z"/>
        <path class="cls-3" d="M81.87,47.45c0-6.58,5.31-18.35,14.92-22.43,7.66-3.25,16.26-.57,24.87,7.75l2.32-2.4c-12.2-11.78-22.23-11.08-28.5-8.42-11.06,4.69-16.95,17.83-16.95,25.51h3.34Z"/>
        <path class="cls-13" d="M123.3,24.87c-.96,0-1.87.19-2.7.54.58.45,1.16.92,1.75,1.42.31-.06.63-.09.95-.09,2.84,0,5.15,2.31,5.15,5.15s-2.31,5.15-5.15,5.15-5.15-2.31-5.15-5.15c0-.08,0-.15.01-.23-.57-.48-1.13-.94-1.7-1.37-.12.51-.19,1.05-.19,1.6,0,3.87,3.15,7.02,7.02,7.02s7.02-3.15,7.02-7.02-3.15-7.02-7.02-7.02Z"/>
        <path class="cls-7" d="M81.87,46.62c0-3-2.62-6.55-7.38-9.99-12.75-9.22-36.76-14.85-61.68-6.64l1.05,3.18c27.19-8.96,49.67-.34,58.67,6.17,4.42,3.2,5.99,5.93,5.99,7.29h3.34Z"/>
        <path class="cls-2" d="M84.66,40.95c-.24.7-.45,1.39-.62,2.06.69.88,1.1,1.98,1.1,3.18,0,2.84-2.31,5.15-5.15,5.15s-5.15-2.31-5.15-5.15c0-.88.22-1.71.62-2.44-.37-.43-.8-.9-1.34-1.41-.73,1.1-1.15,2.42-1.15,3.85,0,3.87,3.15,7.02,7.02,7.02s7.02-3.15,7.02-7.02c0-2.08-.92-3.95-2.36-5.23Z"/>
        <path class="cls-13" d="M35.8,3.54c1.92,0,3.48,1.56,3.48,3.48s-1.56,3.48-3.48,3.48-3.48-1.56-3.48-3.48,1.56-3.48,3.48-3.48Z"/>
        <path class="cls-13" d="M36.37,12.14c-.19.02-.38.03-.57.03-2.84,0-5.15-2.31-5.15-5.15s2.31-5.15,5.15-5.15,5.15,2.31,5.15,5.15c0,.22-.02.43-.04.64.51.48,1.05.95,1.61,1.41.2-.65.31-1.34.31-2.05,0-3.87-3.15-7.02-7.02-7.02s-7.02,3.15-7.02,7.02,3.15,7.02,7.02,7.02c.8,0,1.56-.14,2.28-.39-.59-.49-1.16-1-1.7-1.52Z"/>
        <path class="cls-13" d="M13.86,27.83c1.92,0,3.48,1.56,3.48,3.48s-1.56,3.48-3.48,3.48-3.48-1.56-3.48-3.48,1.56-3.48,3.48-3.48Z"/>
        <path class="cls-13" d="M18.65,33.37c-.8,1.85-2.64,3.16-4.79,3.16-2.87,0-5.21-2.34-5.21-5.21s2.34-5.21,5.21-5.21c1.17,0,2.24.39,3.11,1.04.73-.2,1.46-.38,2.18-.55-1.3-1.46-3.19-2.38-5.29-2.38-3.92,0-7.1,3.19-7.1,7.1s3.19,7.11,7.1,7.11c3.4,0,6.25-2.41,6.94-5.61-.71.17-1.43.36-2.15.55Z"/>
        <path class="cls-13" d="M123.3,28.42c1.92,0,3.48,1.56,3.48,3.48s-1.56,3.48-3.48,3.48-3.48-1.56-3.48-3.48,1.56-3.48,3.48-3.48Z"/>
      </g>
      <g>
        <path class="cls-1" d="M82.99,100.65l-.85-2.35h-4.71l-.86,2.35h-1.48l3.91-10.48h1.57l3.91,10.48h-1.48ZM77.9,97h3.76l-1.88-5.17-1.88,5.17Z"/>
        <path class="cls-1" d="M87.11,99.33h4.52v1.32h-5.91v-10.48h1.39v9.16Z"/>
        <path class="cls-1" d="M102.41,95.45v.63c0,1.37-.47,2.5-1.41,3.41s-2.18,1.35-3.73,1.35-2.92-.53-3.96-1.58c-1.04-1.05-1.56-2.34-1.56-3.85s.52-2.8,1.56-3.85c1.04-1.05,2.35-1.58,3.93-1.58.97,0,1.86.23,2.66.7.81.46,1.43,1.08,1.87,1.83l-1.2.7c-.3-.57-.75-1.03-1.35-1.37-.6-.34-1.27-.52-2-.52-1.2,0-2.18.39-2.95,1.18s-1.15,1.75-1.15,2.91.39,2.13,1.16,2.9c.77.78,1.77,1.17,3,1.17,1.05,0,1.9-.26,2.54-.77.65-.51,1.04-1.18,1.18-2h-3.85v-1.26h5.24Z"/>
        <path class="cls-1" d="M104.1,90.17h1.39v10.48h-1.39v-10.48Z"/>
        <path class="cls-1" d="M109.13,99.33h4.87v1.32h-6.26v-10.48h6.18v1.32h-4.79v3.22h4.42v1.3h-4.42v3.32Z"/>
        <path class="cls-1" d="M121.89,100.65l-2.35-4.01h-2.47v4.01h-1.39v-10.48h4.19c.9,0,1.67.32,2.31.95.64.63.96,1.4.96,2.3,0,.68-.2,1.3-.61,1.86-.4.56-.93.95-1.56,1.18l2.47,4.19h-1.54ZM117.07,91.47v3.91h2.8c.52,0,.96-.19,1.32-.58s.55-.85.55-1.38-.18-1-.55-1.38-.81-.57-1.32-.57h-2.8Z"/>
        <path class="cls-1" d="M128.04,100.84c-.98,0-1.81-.23-2.51-.69-.69-.46-1.18-1.09-1.46-1.89l1.2-.69c.41,1.27,1.34,1.9,2.8,1.9.72,0,1.27-.15,1.65-.44.38-.29.57-.69.57-1.18s-.19-.87-.57-1.12c-.38-.25-1.01-.51-1.9-.79-.44-.15-.77-.26-1-.34-.23-.08-.52-.21-.86-.38-.34-.17-.6-.35-.77-.54-.17-.18-.32-.43-.46-.73-.13-.3-.2-.64-.2-1.02,0-.91.32-1.63.96-2.16s1.42-.8,2.34-.8c.83,0,1.55.21,2.16.63.61.42,1.08.97,1.38,1.66l-1.17.67c-.45-1.08-1.24-1.62-2.38-1.62-.57,0-1.03.14-1.38.42-.35.28-.52.66-.52,1.14s.16.81.49,1.05c.33.24.9.49,1.71.75.28.1.49.17.61.22.12.04.31.11.57.2.25.09.44.17.56.23.12.06.28.15.49.25.2.11.36.22.46.31.1.1.22.22.35.37.13.15.23.29.29.44.06.15.11.32.16.52s.07.4.07.62c0,.92-.33,1.65-1,2.19-.67.54-1.54.82-2.62.82Z"/>
      </g>
      <path class="cls-11" d="M135.08,55.67c1.75,0,3.15,1.41,3.15,3.15s-1.41,3.15-3.15,3.15-3.15-1.41-3.15-3.15,1.41-3.15,3.15-3.15ZM135.08,61.27c1.26,0,2.32-1.02,2.32-2.44s-1.06-2.44-2.32-2.44-2.32,1.02-2.32,2.44,1.06,2.44,2.32,2.44ZM134.6,60.57h-.77v-3.51h1.37c.92,0,1.33.36,1.33,1.07,0,.51-.25.86-.84.94l.88,1.5h-.86l-.84-1.47h-.27v1.47ZM134.6,58.51h.67c.25,0,.49-.16.49-.42s-.24-.42-.49-.42h-.67v.85Z"/>
    </g>
  </g>
</svg>