<svg width="1708" height="405" viewBox="0 0 1708 405" fill="none" xmlns="http://www.w3.org/2000/svg">
<path d="M0 -5.8217e-05H117.128C98.2957 7.34914 85.8939 25.7222 85.8939 45.9325V358.274C85.8939 378.484 98.2957 396.398 117.128 404.207H0C18.8324 396.398 30.7748 378.484 30.7748 358.274V45.9325C30.7748 25.7222 18.8324 7.34914 0 -5.8217e-05ZM392.558 201.185H508.768C489.935 208.993 477.993 226.907 477.993 246.658V404.207L438.032 388.13C433.898 386.293 428.845 385.374 424.252 385.374C420.577 385.374 417.362 385.834 413.687 387.212C396.692 393.183 364.54 402.829 334.683 402.829C218.474 402.829 140.848 313.719 140.848 201.185C140.848 90.0278 209.287 -5.8217e-05 333.765 -5.8217e-05C377.86 -5.8217e-05 422.415 22.0476 455.027 42.7172C459.161 45.0139 463.754 46.3918 467.888 46.3918C473.859 46.3918 479.83 44.0952 483.505 38.5833L457.783 124.937C457.783 124.937 433.438 6.4305 319.985 6.4305C272.674 6.4305 192.752 50.0664 192.752 169.032C192.752 316.935 298.397 374.35 371.889 374.35H372.807C389.343 374.35 406.798 370.216 423.333 363.786V246.658C423.333 236.553 420.118 227.366 415.065 219.558C409.553 211.29 401.745 204.859 392.558 201.185ZM785.619 -5.8217e-05H848.088C831.093 7.80846 820.528 24.3442 820.528 42.7172V404.207H809.504L544.014 46.3918V361.03C544.014 370.676 546.77 379.403 551.822 386.752C556.416 394.101 563.306 400.532 572.033 404.207H509.564C526.56 396.398 537.124 379.862 537.124 361.03V71.1954C537.124 44.5545 527.478 19.2916 509.564 -5.8217e-05H578.463L813.638 316.935V42.7172C813.638 33.5307 810.882 24.8035 805.83 17.4543C801.236 9.64577 794.346 3.67453 785.619 -5.8217e-05ZM871.104 -5.8217e-05H988.232C969.4 7.34914 956.998 25.7222 956.998 45.9325V358.274C956.998 378.484 969.4 396.398 988.232 404.207H871.104C889.936 396.398 901.879 378.484 901.879 358.274V45.9325C901.879 25.7222 889.936 7.34914 871.104 -5.8217e-05ZM1364.78 -5.8217e-05L1371.67 63.8462C1364.32 30.7748 1334.92 6.88982 1300.93 6.88982H1218.25V358.274C1218.25 368.379 1221.01 378.025 1226.52 385.834C1232.03 394.101 1239.84 400.532 1249.03 404.207H1131.9C1150.73 396.398 1163.13 378.484 1163.13 358.274V6.88982H1080C1046.01 6.88982 1016.61 30.7748 1009.26 63.8462L1016.15 -5.8217e-05H1364.78ZM1388.74 -5.8217e-05H1700.62L1707.51 63.8462C1700.62 30.3154 1670.77 6.88982 1636.78 6.88982H1475.1V199.807H1623.92C1642.29 199.807 1658.83 188.783 1666.63 172.247V234.256C1658.83 217.72 1642.29 206.697 1623.92 206.697H1475.1V397.317H1636.78C1670.77 397.317 1700.62 373.432 1707.51 339.901L1700.62 404.207H1388.74C1390.58 403.288 1392.42 402.369 1393.8 401.451L1400.69 397.317C1412.63 388.13 1419.98 373.891 1419.98 358.274V45.9325C1419.98 35.8273 1416.76 26.1815 1411.25 18.373C1408.49 13.7797 1404.82 10.1051 1400.69 6.88982C1398.85 5.05251 1396.55 3.67453 1393.8 2.29657C1392.42 1.3779 1390.58 0.459262 1388.74 -5.8217e-05Z" fill="#750B2B"/>
</svg>
