<?xml version="1.0" encoding="UTF-8"?>
<svg id="Layer_2" data-name="Layer 2" xmlns="http://www.w3.org/2000/svg" viewBox="0 0 83.42 60.46">
  <defs>
    <style>
      .cls-1 {
        fill: #fff;
      }
    </style>
  </defs>
  <g id="Layer_1-2" data-name="Layer 1">
    <g>
      <g>
        <path class="cls-1" d="M0,28.21h4.2v22.59H0v-22.59Z"/>
        <path class="cls-1" d="M24.53,48.86c0,5.76-4.42,9.07-9.16,9.07-2.43,0-5.4-1.01-7.39-3.45l3.08-2.23c.72,1.01,2.35,2.16,4.13,2.16,3.84,0,5.8-2.48,5.8-5.15v-1.15c-1.59,1.76-3.41,2.7-5.98,2.7-4.53,0-8.51-3.38-8.51-8.89s4.27-9,8.95-9c2.35,0,4.24.9,5.47,2.52h.07v-2.05h3.55v15.47ZM15.77,47.28c3.04,0,5.21-2.41,5.21-5.4s-2.36-5.43-5.21-5.43-5.29,2.41-5.29,5.4,2.1,5.43,5.29,5.43Z"/>
        <path class="cls-1" d="M27.5,33.39h3.77v2.19h.07c1.05-1.62,2.97-2.66,5.36-2.66,3.69,0,6.81,3.06,6.81,7.38v10.5h-3.77v-9.68c0-3.17-1.67-4.46-4.16-4.46s-4.31,1.55-4.31,4.39v9.75h-3.77v-17.41Z"/>
        <path class="cls-1" d="M46.39,33.39h3.77v17.41h-3.77v-17.41Z"/>
        <path class="cls-1" d="M51.5,33.39h2.14v-4.61l3.77-1.04v5.65h3v3.52h-3v6.87c0,1.87.43,2.73,1.56,3.38l2.03,1.15-1.67,2.95c-3.87-1.83-5.68-3.17-5.68-6.8v-7.56h-2.14v-3.52Z"/>
        <path class="cls-1" d="M78.52,47.02c-2.1,2.63-5,4.21-8.15,4.24-6.12,0-9.67-4.57-9.67-9.18s3.55-9.17,9.67-9.17c3.66,0,9.09,2.99,9.09,9.79v.68h-14.56c.22,2.66,2.72,4.57,5.36,4.57,2.03,0,3.77-.97,5.07-2.7l3.19,1.76ZM75.05,40.3c-.8-2.66-2.79-4.07-5.18-4.07s-4.35,1.47-4.96,4.07h10.14Z"/>
      </g>
      <g>
        <path class="cls-1" d="M48.27,25.64c1.16,0,2.1.93,2.1,2.09s-.94,2.09-2.1,2.09-2.1-.94-2.1-2.09.94-2.09,2.1-2.09Z"/>
        <path class="cls-1" d="M49.16,27.7c0-8.56-7.7-12.5-15.15-16.31-4.64-2.37-9.03-4.62-11.54-7.85l-1.6,1.22c2.79,3.59,7.58,6.04,12.21,8.41,7.23,3.7,14.05,7.19,14.05,14.53h2.02Z"/>
        <path class="cls-1" d="M49.41,28.45c0-3.94,3.21-11,9-13.45,4.62-1.95,9.81-.34,15.01,4.65l1.4-1.44c-7.36-7.06-13.42-6.65-17.2-5.05-6.68,2.81-10.23,10.69-10.23,15.29h2.02Z"/>
        <path class="cls-1" d="M74.41,14.91c-.58,0-1.13.12-1.63.32.35.27.7.55,1.06.85.19-.03.38-.06.58-.06,1.71,0,3.11,1.39,3.11,3.09s-1.39,3.09-3.11,3.09-3.11-1.38-3.11-3.09c0-.05,0-.09,0-.14-.34-.29-.68-.56-1.02-.82-.07.31-.11.63-.11.96,0,2.32,1.9,4.21,4.24,4.21s4.24-1.89,4.24-4.21-1.9-4.21-4.24-4.21Z"/>
        <path class="cls-1" d="M49.41,27.95c0-1.8-1.58-3.93-4.45-5.99-7.69-5.53-22.18-8.9-37.22-3.98l.63,1.9c16.41-5.37,29.98-.2,35.41,3.7,2.67,1.92,3.62,3.55,3.62,4.37h2.02Z"/>
        <path class="cls-1" d="M51.09,24.55c-.14.42-.27.83-.37,1.23.42.52.67,1.18.67,1.9,0,1.7-1.39,3.09-3.11,3.09s-3.11-1.38-3.11-3.09c0-.53.13-1.03.37-1.46-.22-.26-.48-.54-.81-.84-.44.66-.7,1.45-.7,2.31,0,2.32,1.9,4.21,4.24,4.21s4.24-1.89,4.24-4.21c0-1.25-.55-2.37-1.42-3.14Z"/>
        <path class="cls-1" d="M21.61,2.12c1.16,0,2.1.93,2.1,2.09s-.94,2.09-2.1,2.09-2.1-.93-2.1-2.09.94-2.09,2.1-2.09Z"/>
        <path class="cls-1" d="M21.95,7.28c-.11.01-.23.02-.34.02-1.71,0-3.11-1.39-3.11-3.09s1.39-3.09,3.11-3.09,3.11,1.39,3.11,3.09c0,.13-.01.26-.03.38.31.29.63.57.97.85.12-.39.19-.8.19-1.23,0-2.32-1.9-4.21-4.24-4.21s-4.24,1.89-4.24,4.21,1.9,4.21,4.24,4.21c.48,0,.94-.08,1.37-.23-.35-.3-.7-.6-1.03-.91Z"/>
        <path class="cls-1" d="M8.36,16.69c1.16,0,2.1.94,2.1,2.09s-.94,2.09-2.1,2.09-2.1-.94-2.1-2.09.94-2.09,2.1-2.09Z"/>
        <path class="cls-1" d="M11.25,20.01c-.48,1.11-1.6,1.89-2.89,1.89-1.73,0-3.14-1.4-3.14-3.12s1.41-3.12,3.14-3.12c.7,0,1.35.23,1.87.62.44-.12.88-.23,1.32-.33-.79-.87-1.92-1.43-3.19-1.43-2.36,0-4.29,1.91-4.29,4.26s1.92,4.26,4.29,4.26c2.05,0,3.77-1.44,4.19-3.36-.43.1-.86.21-1.3.33Z"/>
        <path class="cls-1" d="M74.41,17.04c1.16,0,2.1.94,2.1,2.09s-.94,2.09-2.1,2.09-2.1-.94-2.1-2.09.94-2.09,2.1-2.09Z"/>
      </g>
      <g>
        <path class="cls-1" d="M50.08,60.35l-.52-1.41h-2.84l-.52,1.41h-.89l2.36-6.28h.95l2.36,6.28h-.89ZM47.01,58.16h2.27l-1.14-3.1-1.14,3.1Z"/>
        <path class="cls-1" d="M52.57,59.56h2.73v.79h-3.57v-6.28h.84v5.49Z"/>
        <path class="cls-1" d="M61.8,57.23v.38c0,.82-.28,1.5-.85,2.04s-1.32.81-2.25.81-1.76-.32-2.39-.95c-.63-.63-.94-1.4-.94-2.31s.31-1.68.94-2.31c.63-.63,1.42-.95,2.37-.95.58,0,1.12.14,1.61.42.49.28.86.64,1.13,1.1l-.72.42c-.18-.34-.45-.61-.82-.82-.36-.21-.77-.31-1.21-.31-.72,0-1.32.23-1.78.7s-.7,1.05-.7,1.75.23,1.27.7,1.74c.47.47,1.07.7,1.81.7.63,0,1.14-.15,1.54-.46.39-.31.63-.71.71-1.2h-2.32v-.75h3.16Z"/>
        <path class="cls-1" d="M62.82,54.06h.84v6.28h-.84v-6.28Z"/>
        <path class="cls-1" d="M65.86,59.56h2.94v.79h-3.78v-6.28h3.73v.79h-2.89v1.93h2.67v.78h-2.67v1.99Z"/>
        <path class="cls-1" d="M73.55,60.35l-1.42-2.41h-1.49v2.41h-.84v-6.28h2.53c.54,0,1.01.19,1.39.57.39.38.58.84.58,1.38,0,.41-.12.78-.37,1.11-.24.34-.56.57-.94.71l1.49,2.51h-.93ZM70.65,54.84v2.34h1.69c.31,0,.58-.12.8-.35s.33-.51.33-.83-.11-.6-.33-.83-.49-.34-.8-.34h-1.69Z"/>
        <path class="cls-1" d="M77.27,60.46c-.59,0-1.09-.14-1.51-.41-.42-.28-.71-.65-.88-1.13l.72-.41c.25.76.81,1.14,1.69,1.14.43,0,.76-.09.99-.26.23-.18.34-.41.34-.7s-.11-.52-.34-.67c-.23-.15-.61-.31-1.15-.48-.26-.09-.46-.16-.6-.21-.14-.05-.31-.12-.52-.23-.21-.1-.36-.21-.47-.32-.1-.11-.19-.26-.28-.44-.08-.18-.12-.38-.12-.61,0-.54.19-.98.58-1.3s.86-.48,1.41-.48c.5,0,.94.13,1.31.38.37.25.65.58.84,1l-.7.4c-.27-.65-.75-.97-1.44-.97-.34,0-.62.08-.83.25-.21.17-.32.39-.32.68s.1.48.3.63c.2.14.54.29,1.03.45.17.06.29.1.37.13.07.03.19.07.34.12.15.05.27.1.34.14.07.04.17.09.29.15.12.07.22.13.28.19.06.06.13.13.21.22.08.09.14.18.18.27.04.09.07.19.09.31s.04.24.04.37c0,.55-.2.99-.61,1.31-.4.33-.93.49-1.58.49Z"/>
      </g>
      <path class="cls-1" d="M81.52,33.38c1.05,0,1.9.84,1.9,1.89s-.85,1.89-1.9,1.89-1.9-.84-1.9-1.89.85-1.89,1.9-1.89ZM81.52,36.73c.76,0,1.4-.61,1.4-1.46s-.64-1.46-1.4-1.46-1.4.61-1.4,1.46.64,1.46,1.4,1.46ZM81.23,36.32h-.47v-2.1h.83c.55,0,.8.21.8.64,0,.31-.15.51-.51.57l.53.9h-.52l-.51-.88h-.16v.88ZM81.23,35.08h.4c.15,0,.3-.1.3-.25s-.15-.25-.3-.25h-.4v.51Z"/>
    </g>
  </g>
</svg>