<?xml version="1.0" encoding="UTF-8"?>
<svg id="Layer_2" data-name="Layer 2" xmlns="http://www.w3.org/2000/svg" viewBox="0 0 143.81 57.88">
  <defs>
    <style>
      .cls-1 {
        fill-rule: evenodd;
      }

      .cls-1, .cls-2 {
        fill: #fff;
      }
    </style>
  </defs>
  <g id="Layer_1-2" data-name="Layer 1">
    <g>
      <g>
        <path class="cls-1" d="M24.6,50.59c-.12,0-.25,0-.37,0,.14-.07.29-.06.44-.06-.02.02-.05.04-.07.06"/>
        <path class="cls-2" d="M28.89,19.78c-.79-3.03-3.74-5.31-6.87-5.32-3.45-.01-6.34,2.14-7.22,5.39-.85,3.14.54,6.47,3.39,8.12,0,0,0,0,0,0,0,.26,0,.53.01.79h0v1.23h0v1.52h0s0,0,0,0v2.32h0c0,.44-.01.88-.01,1.32q0,.56-.51.43c-.87-.29-1.72-.63-2.55-1.02h0c-.41-.24-.82-.48-1.24-.72h0c-.38-.28-.77-.55-1.15-.83,0,0,0,0,0,0-.39-.35-.78-.7-1.18-1.05-.24-.25-.48-.5-.72-.75,0,0,0,0,0,0-.18-.25-.36-.49-.59-.69,0,0,0,0,0,0,0,0,0,0,0,0-.17-.24-.34-.49-.51-.73-.14-.22-.28-.44-.42-.66,0,0,0,0,0,0,0,0,0,0,0,0-.22-.41-.44-.83-.66-1.24-.2-.47-.39-.95-.59-1.43,0,0,0,0,0,0,0,0,0,0,0,0-.14-.48-.28-.97-.42-1.45,0,0,0,0,0,0,0,0,0,0,0,0-.1-.6-.2-1.21-.3-1.81,0,0,0,0,0,0h0c0-.36,0-.72-.07-1.08h0v-.94c-.03-1.81-1.71-3.23-3.41-3.35-1.75-.12-3.37,1.02-3.8,2.69-.07.11,0,.25-.06.36-.03.51-.03,1.01,0,1.52,0,0,0,0,0,0,.02.75.05,1.5.2,2.24h0c.08.91.28,1.8.53,2.68,0,0,0,0,0,0,0,0,0,0,0,0,.22.89.51,1.76.88,2.6.06.15.08.31.2.43,0,0,0,0,0,0,.03.07.06.14.08.22,0,0,0,0,0,0,.28.68.62,1.33,1,1.96.38.67.79,1.33,1.27,1.95,0,0,0,0,0,0,.28.41.57.8.92,1.16.32.45.71.84,1.1,1.22,0,0,0,0,0,0h0c.37.43.8.8,1.23,1.16h0s0,0,0,0c.52.48,1.05.95,1.66,1.31.63.51,1.32.93,2.04,1.29h0s0,0,0,0c.59.38,1.23.69,1.89.94,0,0,0,0,0,0,.9.44,1.85.77,2.83,1.02,0,0,0,0,0,0,0,0,0,0,0,0,1.8.56,3.65.82,5.54.85.45.02.89.04,1.33-.06,1.44-.3,2.68-1.6,2.73-2.94.04-1.14,0-2.28,0-3.42h0v-3.03s0,0,0,0h0v-1.95h0v-1.52h0c0-.38,0-.77,0-1.16,0,0,0,0,0,0,0-.45,0-.9.02-1.35h0c2.89-1.65,4.26-4.95,3.4-8.21Z"/>
        <path class="cls-2" d="M43.59,19.49c-.07-.8-.2-1.59-.38-2.37,0,0,0,0,0,0h0c-.21-1.15-.58-2.25-1.01-3.33,0,0,0,0,0,0-.06-.16-.11-.32-.18-.47-.51-1.23-1.15-2.39-1.88-3.5,0,0,0,0,0,0,0,0,0,0,0,0-.73-1.16-1.59-2.23-2.57-3.2,0,0,0,0,0,0,0,0,0,0,0,0-.69-.75-1.44-1.44-2.27-2.03,0,0,0,0,0,0,0,0,0,0,0,0-.48-.4-.97-.77-1.52-1.07-.55-.4-1.13-.73-1.74-1.01h0c-.58-.35-1.2-.62-1.84-.86,0,0,0,0,0,0,0,0,0,0,0,0-.65-.31-1.34-.54-2.04-.72-1.02-.36-2.07-.56-3.13-.71,0,0,0,0,0,0h0c-.5-.1-1-.17-1.52-.16-.18-.03-.3-.03-.39-.02-.7-.06-1.4-.03-2.1-.03,0,0,0,0,0,0,0,0,0,0,0,0-.64-.03-1.27.07-1.89.15,0,0,0,0,0,0,0,0,0,0,0,0-.66.08-1.32.16-1.96.35,0,0,0,0,0,0-.07,0-.14,0-.21.03-1.05.24-2.07.56-3.07.96-1.22.46-2.39,1.03-3.49,1.73,0,0,0,0,0,0-.88.5-1.7,1.09-2.46,1.76,0,0,0,0,0,0,0,0,0,0,0,0-.88.69-1.69,1.44-2.4,2.3,0,0,0,0,0,0,0,0,0,0,0,0-.43.39-.77.86-1.11,1.32-.59.77-1.15,1.57-1.58,2.44-.26.34-.43.74-.62,1.13-.38.78-.76,1.57-.99,2.41,0,0,0,0,0,0,0,0,0,0,0,0-.31.73-.51,1.49-.68,2.26-.27,1.21-.5,2.43-.48,3.68.33-.66.66-1.31,1.26-1.8,1.7-1.4,4.46-.87,5.48,1.08.23.44.35.91.47,1.38.02-.09.05-.19.06-.28.03-1.32.34-2.59.73-3.84,0,0,0,0,0,0,0,0,0,0,0,0,.03-.09.07-.18.1-.27.26-.73.63-1.41.94-2.11.05-.09.11-.18.16-.27.49-.79,1.08-1.52,1.64-2.26,0,0,0,0,0,0h0c.56-.53,1.12-1.06,1.68-1.59h0c.57-.41,1.14-.81,1.71-1.21,0,0,0,0,0,0,.78-.42,1.57-.81,2.39-1.16.75-.22,1.5-.44,2.25-.65,0,0,0,0,0,0,0,0,0,0,0,0,.44-.07.88-.14,1.32-.21,0,0,0,0,0,0,0,0,0,0,0,0,.36-.01.72,0,1.07-.08h0c.41.01.82.02,1.23.03h0c.49.04.98.08,1.46.12h0s0,0,0,0c.63.14,1.26.28,1.89.42.49.17.97.34,1.46.5,0,0,0,0,0,0,.41.19.82.38,1.24.58h0c.41.24.83.48,1.24.72.34.25.68.49,1.02.74h0c.54.42,1.02.91,1.53,1.37,0,0,0,0,0,0,0,0,0,0,0,0,.63.68,1.2,1.42,1.74,2.18,0,0,0,0,0,0,0,0,0,0,0,0,.48.82.92,1.66,1.3,2.54,0,0,0,0,0,0,0,0,0,0,0,0,.28.83.53,1.66.74,2.51,0,0,0,0,0,0,.06.53.12,1.06.2,1.59.05.39-.03.78.09,1.16,0,.25,0,.51.03.76.32,1.89,2.1,3.26,3.94,3.03,2.05-.25,3.42-1.87,3.3-3.88-.02-.71-.06-1.41-.13-2.11Z"/>
        <path class="cls-1" d="M27.29,50.17s0,0,0,0h0c-.16-.03-.29.04-.44.07-.51.07-1.02.15-1.53.22,0,0,0,0,0,0-.22.02-.44.05-.65.07-.03.01-.05.04-.07.07,0,0,0,0,0,0-.12-.06-.25-.05-.37,0-.07,0-.14,0-.21,0,0,0,0,0,0,0-.1,0-.2,0-.29,0,0,0,0,0,0,0-.34.02-.67.04-1.01.06-.19,0-.39,0-.58,0,0,0,0,0,0,0,0,0,0,0,0,0h-.29c-.17,0-.34,0-.51,0h0s0,0,0,0c-.21,0-.43,0-.64-.01,0,0,0,0,0,0h0c-.29-.08-.59-.06-.89-.05,0,0,0,0,0,0,0,0,0,0,0,0-.09,0-.19,0-.28-.02,0,0,0,0,0,0-.26-.1-.53-.06-.8-.07,0,0,0,0,0,0,0,0,0,0,0,0-.38-.09-.78-.12-1.17-.15,0,0,0,0,0,0,0,0,0,0,0,0-.26-.08-.53-.12-.8-.13-.41-.12-.83-.16-1.25-.16-1.39.03-2.44.66-3.11,1.85-.67,1.19-.64,2.42.04,3.61.69,1.2,1.82,1.7,3.15,1.83.29.05.58.1.88.14h0c.36.05.72.1,1.09.14h0c.29,0,.58.13.88.08h0c.24.05.48.1.73.07,0,0,0,0,0,0,0,0,0,0,0,0,.39.02.77.05,1.16.07h0s0,0,0,0c.27,0,.54,0,.81,0,0,0,0,0,0,0,0,0,0,0,0,0,.24,0,.48,0,.72,0h0s.36,0,.36,0h0c.24,0,.49,0,.73,0h.44c.24,0,.49.04.72-.06,0,0,0,0,0,0,0,0,0,0,0,0,.15,0,.29,0,.44,0h0c.22,0,.44.01.65-.06,0,0,0,0,0,0,.29.02.58-.02.87-.08,0,0,0,0,0,0,.64-.06,1.27-.12,1.9-.28.15,0,.3.01.43-.07h0s0,0,0,0c1.74-.2,3.08-1.61,3.19-3.34.15-2.55-2.18-4.27-4.28-3.81Z"/>
      </g>
      <path class="cls-1" d="M73,29.37v1.4c0,1.27,0,2.54,0,3.8,0,.28-.08.35-.35.34-.55-.02-1.09-.02-1.64,0-.29.01-.36-.08-.36-.36,0-2.78,0-5.56,0-8.34q0-.81.81-.81c.46,0,.98-.11,1.37.05.39.17.59.68.87,1.04,1.11,1.45,2.22,2.9,3.33,4.35.04.05.06.13.19.15v-.38c0-1.63,0-3.26,0-4.89,0-.25.06-.34.32-.33.58.02,1.17.01,1.75,0,.2,0,.28.05.27.26,0,3,0,5.99,0,8.99,0,.22-.08.26-.28.26-.57,0-1.14-.02-1.71,0-.21,0-.3-.11-.41-.24-1.3-1.69-2.59-3.38-3.89-5.07-.07-.09-.14-.17-.21-.25-.03,0-.05.01-.08.02"/>
      <path class="cls-1" d="M137.24,29.37v1.11c0,1.37,0,2.73,0,4.09,0,.27-.07.35-.35.34-.55-.02-1.1-.02-1.64,0-.29.01-.36-.08-.36-.36,0-2.66,0-5.31,0-7.97,0-.38-.17-.89.08-1.11.22-.19.72-.02,1.09-.07.75-.11,1.23.17,1.67.8,1.13,1.59,2.35,3.11,3.53,4.65.04.05.06.13.19.15v-.35c0-1.64,0-3.29,0-4.93,0-.24.05-.34.32-.33.58.02,1.17.01,1.75,0,.2,0,.28.05.28.26,0,3,0,5.99,0,8.99,0,.21-.08.26-.28.26-.57,0-1.14-.02-1.72,0-.21,0-.3-.11-.41-.24-1.3-1.69-2.59-3.38-3.89-5.06-.07-.09-.14-.17-.2-.25-.03,0-.05.01-.08.02"/>
      <path class="cls-1" d="M100.74,19.27c0-1.83,0-3.56,0-5.29,0-.31.06-.42.4-.4.56.03,1.12.02,1.68,0,.2,0,.27.05.27.26,0,3,0,5.99,0,8.99,0,.22-.08.26-.28.26-.57,0-1.14-.02-1.71,0-.21,0-.3-.11-.41-.25-1.3-1.69-2.59-3.38-3.89-5.06-.07-.09-.14-.17-.22-.26-.12.11-.06.24-.06.34,0,1.63,0,3.26,0,4.89,0,.28-.08.35-.35.34-.57-.02-1.14-.02-1.71,0-.23,0-.29-.07-.28-.29,0-2.97,0-5.94,0-8.91,0-.24.07-.31.31-.31.5.02,1,.02,1.5,0,.3-.02.49.08.67.32,1.25,1.65,2.51,3.29,3.76,4.94.09.12.19.24.34.43"/>
      <path class="cls-1" d="M66.51,31.08v-1.34c0-1.33,0-2.66,0-3.99,0-.29.08-.37.37-.36.56.02,1.12.02,1.68,0,.24,0,.3.08.3.31,0,2.97,0,5.94,0,8.91,0,.22-.06.29-.29.29-.47-.02-.95-.04-1.42,0-.39.04-.62-.13-.84-.42-1.26-1.66-2.53-3.31-3.8-4.96-.05-.07-.11-.12-.17-.19-.11.11-.06.24-.06.34,0,1.63,0,3.26,0,4.89,0,.24-.05.34-.32.33-.58-.02-1.17-.01-1.75,0-.2,0-.28-.05-.28-.26,0-3,0-5.99,0-8.99,0-.21.08-.26.28-.26.57,0,1.14.02,1.71,0,.27-.01.36.18.48.33,1.26,1.64,2.51,3.29,3.77,4.93.09.12.19.24.34.42"/>
      <path class="cls-1" d="M73.62,13.43c1.28,0,2.47.31,3.59.92.21.12.23.22.13.42-.24.47-.47.95-.69,1.44-.1.22-.19.27-.42.15-.78-.42-1.61-.73-2.5-.86-.27-.04-.53-.03-.79.05-.25.08-.44.21-.49.48-.05.28.09.49.3.65.26.19.55.3.86.39.77.25,1.57.42,2.31.78,1.11.53,1.64,1.4,1.55,2.62-.09,1.14-.74,1.9-1.77,2.32-1.31.53-2.66.48-4,.11-.82-.22-1.57-.58-2.26-1.06-.21-.15-.22-.27-.11-.47.24-.46.48-.92.7-1.39.1-.22.17-.28.4-.1.85.65,1.81,1.08,2.88,1.24.33.05.66.02.97-.07.3-.09.52-.28.56-.6.03-.31-.12-.53-.38-.69-.57-.35-1.23-.45-1.85-.64-.47-.14-.92-.29-1.37-.5-1.97-.91-1.77-3.48-.3-4.45.82-.54,1.73-.72,2.7-.72"/>
      <path class="cls-1" d="M59.7,20.4c.36-1.02.7-1.98,1.04-2.95.42-1.2.84-2.39,1.25-3.59.07-.2.15-.29.38-.28.67.02,1.34.01,2.01,0,.25,0,.31.04.21.29-.81,2.02-1.6,4.04-2.4,6.06-.38.95-.76,1.91-1.13,2.87-.08.22-.19.29-.42.29-.67-.01-1.34-.01-2.01,0-.23,0-.35-.06-.43-.28-1.16-2.98-2.32-5.96-3.5-8.94-.1-.26-.03-.29.21-.29.69.01,1.39.02,2.08,0,.25,0,.36.08.44.31.72,2.1,1.46,4.2,2.19,6.29.02.05.04.1.09.22"/>
      <path class="cls-1" d="M101.48,25.41c-.41,1.06-.81,2.07-1.21,3.07-.79,2.01-1.59,4.02-2.37,6.03-.12.31-.27.42-.6.4-.64-.03-1.29-.01-1.93,0-.19,0-.28-.06-.35-.24-1.19-3.06-2.39-6.12-3.59-9.18,0,0,0-.02,0-.09h.51c.59,0,1.19.02,1.79,0,.31-.02.41.1.51.37.73,2.13,1.48,4.26,2.24,6.46.14-.39.27-.72.39-1.06.63-1.81,1.27-3.62,1.9-5.44.08-.24.19-.34.46-.33.74.02,1.47,0,2.26,0"/>
      <path class="cls-1" d="M114.37,25.41c1.25,0,2.5,0,3.76,0,.27,0,.36.06.35.34-.02.46-.03.92,0,1.38.02.32-.11.38-.4.38-.72-.02-1.43,0-2.15-.01-.3,0-.36.09-.36.37.01,2.22,0,4.44.01,6.67,0,.33-.09.41-.41.39-.57-.03-1.14-.02-1.71,0-.3.01-.39-.07-.39-.38.01-2.2,0-4.4.02-6.59,0-.35-.06-.49-.45-.47-.68.04-1.36,0-2.04.01-.27,0-.4-.05-.38-.35.03-.47.02-.94,0-1.41,0-.25.07-.33.33-.33,1.27.01,2.55,0,3.83,0"/>
      <path class="cls-1" d="M80.52,40.42c0,.86,0,1.72,0,2.57,0,2.3-1.52,3.81-3.84,3.82-.55,0-1.09-.03-1.62-.18-1.54-.45-2.54-1.75-2.56-3.4-.02-1.89,0-3.79-.01-5.69,0-.24.07-.3.31-.3.79,0,.79-.01.79.76,0,1.56,0,3.12,0,4.68,0,.36.03.72.11,1.08.3,1.25,1.24,2,2.54,2.05.93.04,1.8-.11,2.46-.83.58-.63.73-1.4.73-2.22,0-1.7.01-3.41,0-5.11,0-.34.1-.42.43-.41.68.02.68,0,.68.69v2.5Z"/>
      <path class="cls-1" d="M122.06,30.2c0,1.44-.01,2.87,0,4.31,0,.35-.11.42-.43.41-.59-.02-1.19-.02-1.78,0-.22,0-.29-.06-.29-.28,0-2.98,0-5.96,0-8.95,0-.23.09-.28.3-.28.62.01,1.24.02,1.86,0,.27,0,.35.07.34.34-.01,1.48,0,2.97,0,4.45"/>
      <path class="cls-1" d="M68.04,18.33c0,1.47,0,2.95,0,4.42,0,.27-.07.35-.34.34-.62-.02-1.24-.01-1.86,0-.21,0-.3-.04-.3-.28,0-2.98,0-5.96,0-8.95,0-.22.07-.29.29-.29.63.01,1.26.02,1.89,0,.27,0,.32.09.32.33,0,1.47,0,2.95,0,4.42"/>
      <path class="cls-1" d="M58.04,30.2c0,1.44-.01,2.87,0,4.31,0,.35-.11.42-.43.41-.59-.02-1.19-.02-1.79,0-.22,0-.29-.06-.29-.28,0-2.98,0-5.96,0-8.95,0-.23.09-.28.3-.28.62.01,1.24.02,1.86,0,.27,0,.35.07.34.34-.01,1.48,0,2.97,0,4.45"/>
      <path class="cls-1" d="M78.76,18.33c0-1.46,0-2.92,0-4.38,0-.27.05-.38.35-.37.62.02,1.24.02,1.86,0,.23,0,.29.07.29.29,0,2.98,0,5.96,0,8.95,0,.23-.09.28-.3.28-.62-.01-1.24-.02-1.86,0-.27,0-.35-.07-.35-.34.01-1.47,0-2.95,0-4.42"/>
      <path class="cls-1" d="M55.19,42.05c-.08-2.54,2.04-4.75,4.79-4.83,1.3-.03,2.46.36,3.5,1.13.18.14.2.24.06.4-.16.19-.28.5-.48.57-.24.09-.4-.25-.6-.38-2.31-1.55-5.41-.43-6.06,2.19-.52,2.1.98,4.27,3.14,4.59,1.21.17,2.29-.13,3.23-.89.24-.19.35-.14.52.07.42.51.43.51-.11.91-2.86,2.12-6.94.76-7.86-2.61-.11-.39-.14-.78-.13-1.14"/>
      <path class="cls-1" d="M65.63,41.98c0-1.46,0-2.92,0-4.38,0-.27.05-.38.35-.37.75.02.75,0,.75.73,0,2.45,0,4.9,0,7.36,0,.34.1.42.43.41,1.17-.02,2.33,0,3.5-.01.24,0,.31.06.31.3,0,.73.01.73-.72.73-1.42,0-2.85,0-4.27,0-.28,0-.34-.08-.34-.35.01-1.47,0-2.95,0-4.42"/>
      <path class="cls-1" d="M133.6,30.18c.07,2.43-1.78,4.45-4.22,4.8-1.79.26-3.42-.1-4.74-1.39-1.82-1.78-1.91-4.63-.25-6.56,2.14-2.48,6.65-2.21,8.46.52.53.8.79,1.68.75,2.64M128.44,27.45c-1.43,0-2.64,1.21-2.64,2.69,0,1.57,1.1,2.76,2.63,2.77,1.57.01,2.55-1.24,2.6-2.7.02-1.51-1.16-2.77-2.59-2.76"/>
      <path class="cls-1" d="M91.19,30.18c.07,2.43-1.78,4.45-4.23,4.8-1.77.25-3.4-.09-4.71-1.37-1.84-1.79-1.95-4.64-.27-6.59,2.14-2.48,6.65-2.2,8.46.52.51.77.75,1.61.75,2.64M86.04,27.46c-1.46.03-2.61,1.08-2.64,2.68-.03,1.54,1.07,2.76,2.61,2.78,1.55.02,2.55-1.22,2.61-2.7.02-1.51-1.14-2.79-2.58-2.76"/>
      <path class="cls-1" d="M92.87,18.35c.07,2.44-1.78,4.45-4.22,4.8-1.79.26-3.42-.1-4.74-1.39-1.82-1.78-1.92-4.64-.25-6.56,2.14-2.48,6.65-2.21,8.46.51.52.77.75,1.61.75,2.64M87.72,15.64c-1.45.03-2.61,1.07-2.64,2.67-.03,1.53,1.06,2.76,2.61,2.78,1.54.02,2.55-1.21,2.61-2.69.02-1.51-1.14-2.79-2.58-2.76"/>
      <path class="cls-1" d="M111.32,34.91c-.87,0-1.67,0-2.47,0-.18,0-.25-.08-.31-.24-.15-.4-.32-.78-.46-1.18-.07-.19-.16-.26-.36-.26-1.2.01-2.41,0-3.61,0-.19,0-.28.07-.34.24-.15.41-.32.81-.49,1.21-.04.11-.06.23-.23.23-.8,0-1.6,0-2.45,0,.32-.74.61-1.43.91-2.13,1.01-2.33,2.03-4.65,3.02-6.98.13-.3.28-.42.61-.4.59.03,1.19.03,1.79,0,.3-.01.42.1.53.35,1.12,2.66,2.24,5.32,3.37,7.97.16.38.32.75.5,1.18M106.94,31.35c.28,0,.26-.09.18-.29-.26-.66-.51-1.32-.77-1.99-.13-.33-.26-.65-.43-1.08-.47,1.18-.89,2.25-1.33,3.35.82,0,1.58-.01,2.34,0"/>
      <path class="cls-1" d="M113.3,18.27c.4.49.84.89,1.25,1.32.13.13.2.08.27-.06.18-.34.33-.7.44-1.07.05-.18.1-.21.26-.09.4.3.8.58,1.21.87.14.09.15.19.08.34-.18.44-.39.86-.65,1.25-.1.16-.08.24.05.36.35.31.69.65,1.04.96.16.14.19.24.01.4-.3.26-.59.54-.86.84-.16.18-.26.14-.41,0-.3-.3-.63-.57-.92-.88-.17-.18-.28-.17-.48-.03-1.25.85-2.59,1.04-4.02.5-1.33-.51-2.03-1.83-1.68-3.15.19-.72.7-1.2,1.3-1.59q.46-.3.17-.78c-.3-.51-.47-1.05-.46-1.65.01-.95.52-1.71,1.42-2.04.87-.32,1.76-.33,2.64-.02.78.27,1.33.77,1.48,1.6.14.84-.18,1.54-.83,2.09-.4.34-.86.59-1.34.86M111.81,19.23c-.07-.07-.12-.14-.24-.06-.4.27-.71.6-.73,1.1-.02.49.3.93.78,1.11.71.27,1.35.06,2.03-.4-.63-.6-1.24-1.18-1.84-1.75M112.24,16.95c.06.1.12.13.24.06.37-.2.71-.43.94-.78.23-.34.22-.76,0-1.05-.2-.26-.6-.36-.96-.24-.36.12-.6.45-.61.9.03.37.17.75.4,1.1"/>
      <path class="cls-1" d="M88.73,41.7c.45.15.88.27,1.23.58.78.67.92,1.55.73,2.48-.22,1.04-.99,1.56-1.97,1.83-.46.13-.93.16-1.41.16-1.25,0-2.51,0-3.76,0-.28,0-.34-.08-.34-.35,0-2.95,0-5.9,0-8.85,0-.24.04-.34.31-.34,1.36.02,2.73,0,4.09.02.62,0,1.2.15,1.74.48.82.5,1.11,1.26,1.01,2.17-.1.86-.58,1.44-1.41,1.72-.07.02-.13.05-.23.09M88.05,45.64c1.16-.2,1.8-1.05,1.53-2.07-.21-.78-.83-1.08-1.54-1.19-1.17-.18-2.35-.05-3.53-.08-.21,0-.19.13-.19.26,0,.97,0,1.93,0,2.89,0,.22.09.26.28.26.5-.01,1,0,1.6,0,.55-.02,1.2.04,1.85-.07M84.58,38.24c-.21,0-.27.07-.27.27,0,.84,0,1.69,0,2.54,0,.19.06.25.25.25.93,0,1.87.01,2.81-.02.58-.02,1.14-.14,1.55-.61.74-.87.2-2.14-.99-2.36-.63-.12-1.26-.04-1.79-.07-.58,0-1.07,0-1.56,0"/>
    </g>
  </g>
</svg>