<?xml version="1.0" encoding="UTF-8"?>
<svg id="Layer_2" data-name="Layer 2" xmlns="http://www.w3.org/2000/svg" viewBox="0 0 238.31 96.53">
  <defs>
    <style>
      .cls-1, .cls-2 {
        fill: #190005;
      }

      .cls-2 {
        fill-rule: evenodd;
      }
    </style>
  </defs>
  <g id="Layer_1-2" data-name="Layer 1">
    <g>
      <g>
        <path class="cls-2" d="M40.76,84.38c-.21,0-.41,0-.62,0,.24-.12.49-.1.74-.09-.04.03-.08.07-.12.1"/>
        <path class="cls-1" d="M47.87,33c-1.32-5.05-6.2-8.86-11.38-8.88-5.72-.02-10.51,3.57-11.96,8.98-1.41,5.24.9,10.79,5.62,13.55,0,0,0,0,0,0,0,.44.02.88.02,1.32h0v2.05h0v2.53h0s0,0,0,0v3.86h0c0,.73-.02,1.46-.02,2.2q0,.93-.84.72c-1.44-.48-2.85-1.04-4.22-1.7h0c-.68-.4-1.37-.8-2.05-1.2h0c-.64-.46-1.28-.92-1.91-1.38,0,0,0,0,0,0-.65-.58-1.3-1.17-1.95-1.75-.4-.42-.79-.84-1.19-1.26,0,0,0,0,0,0-.3-.41-.6-.82-.98-1.16,0,0,0,0,0,0,0,0,0,0,0,0-.28-.41-.56-.82-.84-1.22-.23-.36-.46-.73-.7-1.09,0,0,0,0,0,0,0,0,0,0,0,0-.37-.69-.73-1.38-1.1-2.07-.33-.79-.65-1.58-.98-2.38,0,0,0,0,0,0,0,0,0,0,0,0-.23-.81-.47-1.61-.7-2.42,0,0,0,0,0,0,0,0,0,0,0,0-.17-1.01-.34-2.01-.5-3.02,0,0,0,0,0,0h0c0-.6,0-1.2-.11-1.8h0v-1.56c-.06-3.02-2.83-5.39-5.65-5.58-2.9-.19-5.59,1.69-6.3,4.49-.12.19,0,.42-.09.61-.05.84-.06,1.69,0,2.53,0,0,0,0,0,0,.04,1.25.09,2.5.33,3.74h0c.13,1.52.46,3,.88,4.46,0,0,0,0,0,0,0,0,0,0,0,0,.37,1.48.85,2.93,1.46,4.34.1.24.14.52.33.72,0,0,0,0,0,0,.05.12.09.24.14.36,0,0,0,0,0,0,.46,1.13,1.03,2.21,1.65,3.27.63,1.12,1.3,2.23,2.11,3.25,0,0,0,0,0,0,.46.68.95,1.34,1.52,1.93.54.75,1.18,1.4,1.83,2.04,0,0,0,0,0,0h0c.62.71,1.32,1.33,2.04,1.93h0s0,0,0,0c.87.8,1.74,1.58,2.76,2.18,1.04.85,2.19,1.55,3.38,2.16h0s0,0,0,0c.98.64,2.04,1.15,3.13,1.57,0,0,0,0,0,0,1.5.74,3.07,1.29,4.68,1.7,0,0,0,0,0,0,0,0,0,0,0,0,2.99.94,6.05,1.36,9.18,1.42.74.03,1.47.06,2.21-.09,2.39-.5,4.45-2.67,4.53-4.91.06-1.9,0-3.8,0-5.7h0v-5.06s0,0,0,0h0v-3.26h0v-2.53h0c0-.64,0-1.29,0-1.93,0,0,0,0,0,0,0-.75.02-1.5.03-2.25h0c4.79-2.75,7.06-8.25,5.64-13.69Z"/>
        <path class="cls-1" d="M72.23,32.51c-.12-1.33-.33-2.65-.63-3.95,0,0,0,0,0,0h0c-.36-1.91-.96-3.75-1.68-5.55,0,0,0,0,0,0-.1-.26-.18-.53-.29-.78-.84-2.05-1.9-3.98-3.11-5.84,0,0,0,0,0,0,0,0,0,0,0,0-1.22-1.94-2.63-3.72-4.26-5.33,0,0,0,0,0,0,0,0,0,0,0,0-1.15-1.25-2.39-2.4-3.76-3.39,0,0,0,0,0,0,0,0,0,0,0,0-.79-.67-1.61-1.28-2.51-1.79-.9-.66-1.87-1.22-2.88-1.69h0c-.97-.58-1.99-1.04-3.05-1.43,0,0,0,0,0,0,0,0,0,0,0,0-1.08-.52-2.21-.91-3.37-1.21-1.68-.59-3.43-.94-5.19-1.18,0,0,0,0,0,0h0c-.83-.16-1.66-.28-2.51-.27-.3-.04-.49-.05-.64-.04-1.16-.1-2.32-.06-3.48-.05,0,0,0,0,0,0,0,0,0,0,0,0-1.06-.04-2.1.12-3.14.25,0,0,0,0,0,0,0,0,0,0,0,0-1.09.14-2.19.26-3.25.59,0,0,0,0,0,0-.12.01-.24.02-.35.04-1.74.4-3.43.93-5.09,1.59-2.03.77-3.97,1.72-5.79,2.89,0,0,0,0,0,0-1.46.84-2.82,1.81-4.08,2.93,0,0,0,0,0,0,0,0,0,0,0,0-1.46,1.14-2.8,2.41-3.98,3.84,0,0,0,0,0,0,0,0,0,0,0,0-.71.65-1.27,1.44-1.84,2.2-.97,1.29-1.9,2.61-2.62,4.07-.44.57-.71,1.24-1.02,1.88-.63,1.3-1.25,2.61-1.64,4.02,0,0,0,0,0,0,0,0,0,0,0,0-.51,1.22-.85,2.49-1.13,3.77-.44,2.02-.82,4.06-.79,6.15.55-1.1,1.09-2.19,2.09-3.01,2.82-2.34,7.39-1.45,9.08,1.8.39.73.58,1.51.78,2.3.03-.16.09-.31.09-.47.05-2.2.56-4.32,1.2-6.41,0,0,0,0,0,0,0,0,0,0,0,0,.06-.15.11-.29.17-.44.43-1.22,1.05-2.35,1.55-3.53.09-.15.18-.3.27-.46.82-1.32,1.79-2.53,2.71-3.77,0,0,0,0,0,0h0c.93-.88,1.85-1.77,2.78-2.65h0c.94-.68,1.89-1.35,2.83-2.03,0,0,0,0,0,0,1.29-.71,2.61-1.35,3.96-1.94,1.24-.36,2.49-.73,3.73-1.09,0,0,0,0,0,0,0,0,0,0,0,0,.73-.12,1.46-.24,2.19-.35,0,0,0,0,0,0,0,0,0,0,0,0,.6-.02,1.2,0,1.78-.14h0c.68.02,1.35.04,2.03.05h0c.81.07,1.62.14,2.43.2h0s0,0,0,0c1.04.23,2.09.47,3.13.7.8.28,1.61.56,2.41.84,0,0,0,0,0,0,.68.32,1.37.64,2.05.96h0c.68.4,1.37.8,2.05,1.2.56.41,1.12.82,1.68,1.23h0c.9.7,1.69,1.52,2.53,2.29,0,0,0,0,0,0,0,0,0,0,0,0,1.05,1.14,1.98,2.37,2.88,3.64,0,0,0,0,0,0,0,0,0,0,0,0,.79,1.37,1.53,2.78,2.16,4.23,0,0,0,0,0,0,0,0,0,0,0,0,.47,1.38.87,2.77,1.22,4.19,0,0,0,0,0,0,.11.88.2,1.77.33,2.65.09.65-.05,1.31.15,1.94.02.42-.02.85.05,1.26.53,3.16,3.48,5.43,6.53,5.06,3.39-.42,5.68-3.13,5.46-6.47-.03-1.18-.11-2.35-.21-3.52Z"/>
        <path class="cls-2" d="M45.21,83.67s0,0,0,0h0c-.26-.06-.48.07-.72.12-.84.12-1.69.24-2.53.36,0,0,0,0,0,0-.36.04-.72.08-1.08.12-.06.02-.08.07-.12.11,0,0,0,0,0,0-.21-.1-.41-.09-.62,0-.11,0-.23,0-.35.02,0,0,0,0,0,0-.16,0-.33,0-.49.02,0,0,0,0,0,0-.56.03-1.12.07-1.68.1-.32,0-.64,0-.96.01,0,0,0,0,0,0,0,0,0,0,0,0h-.48c-.28,0-.56,0-.84-.01h0s0,0,0,0c-.35,0-.71-.01-1.06-.02,0,0,0,0,0,0h0c-.49-.13-.98-.1-1.48-.09,0,0,0,0,0,0,0,0,0,0,0,0-.16,0-.31-.02-.47-.03,0,0,0,0,0,0-.43-.16-.88-.1-1.32-.12,0,0,0,0,0,0,0,0,0,0,0,0-.64-.15-1.29-.21-1.94-.24,0,0,0,0,0,0,0,0,0,0,0,0-.43-.14-.88-.2-1.33-.22-.68-.2-1.37-.27-2.07-.26-2.31.04-4.05,1.1-5.16,3.08-1.1,1.99-1.06,4.04.07,6.02,1.15,2,3.02,2.83,5.22,3.06.48.08.97.16,1.45.24h0c.6.08,1.2.16,1.8.24h0c.49,0,.96.21,1.46.13h0c.4.09.8.16,1.21.12,0,0,0,0,0,0,0,0,0,0,0,0,.64.04,1.28.08,1.92.12h0s0,0,0,0c.45,0,.89,0,1.34,0,0,0,0,0,0,0,0,0,0,0,0,0,.4,0,.8,0,1.2,0h0s.6,0,.6,0h0c.4,0,.8,0,1.21,0h.73c.4-.01.81.06,1.19-.1,0,0,0,0,0,0,0,0,0,0,0,0,.25,0,.49,0,.73-.02h0c.37.01.73.02,1.08-.11,0,0,0,0,0,0,.49.03.97-.04,1.44-.13,0,0,0,0,0,0,1.06-.09,2.11-.2,3.14-.46.25,0,.5.02.72-.12h0s0,0,0,0c2.88-.34,5.11-2.69,5.28-5.57.26-4.25-3.62-7.12-7.1-6.35Z"/>
      </g>
      <path class="cls-2" d="M120.97,48.99v2.33c0,2.12-.02,4.23.01,6.35,0,.46-.13.58-.58.57-.9-.03-1.81-.04-2.72,0-.49.02-.6-.14-.6-.61.02-4.64,0-9.27,0-13.9q0-1.35,1.34-1.35c.76,0,1.62-.19,2.27.09.65.28.98,1.13,1.44,1.74,1.84,2.42,3.68,4.84,5.52,7.26.07.09.1.22.31.25v-.64c0-2.72,0-5.44,0-8.16,0-.41.09-.56.53-.55.97.03,1.93.02,2.9,0,.33,0,.46.08.45.44,0,5,0,9.99,0,14.99,0,.36-.14.44-.46.43-.95-.02-1.89-.03-2.84,0-.35.01-.5-.18-.67-.41-2.15-2.82-4.3-5.63-6.45-8.45-.11-.14-.23-.28-.34-.42-.04,0-.08.02-.13.03"/>
      <path class="cls-2" d="M227.42,48.98v1.85c0,2.28-.02,4.55.01,6.83,0,.46-.12.59-.58.57-.9-.04-1.82-.04-2.72,0-.48.02-.6-.13-.6-.6.02-4.43,0-8.86.02-13.3,0-.64-.29-1.48.13-1.85.36-.31,1.2-.03,1.81-.12,1.25-.18,2.03.29,2.77,1.33,1.87,2.65,3.89,5.18,5.86,7.76.07.09.1.22.31.26v-.58c0-2.74,0-5.48,0-8.22,0-.41.09-.57.53-.55.97.03,1.93.02,2.9,0,.33,0,.46.08.46.43,0,5,0,9.99,0,14.99,0,.36-.13.44-.46.43-.95-.02-1.9-.03-2.84,0-.35.01-.5-.18-.67-.41-2.15-2.82-4.3-5.63-6.45-8.45-.11-.14-.22-.28-.34-.42-.04,0-.09.02-.13.03"/>
      <path class="cls-2" d="M166.94,32.13c0-3.05.01-5.93-.01-8.82,0-.52.1-.7.66-.67.92.05,1.85.03,2.78,0,.33,0,.45.09.45.44-.01,5-.01,9.99,0,14.99,0,.36-.14.44-.46.43-.95-.02-1.89-.03-2.84,0-.35.01-.5-.18-.67-.41-2.15-2.82-4.3-5.63-6.45-8.45-.11-.14-.23-.28-.36-.44-.19.19-.11.39-.11.57,0,2.72-.02,5.44,0,8.16,0,.46-.13.58-.58.57-.95-.03-1.89-.03-2.84,0-.38,0-.47-.12-.47-.48,0-4.96,0-9.91,0-14.87,0-.39.11-.52.51-.51.83.03,1.65.04,2.48,0,.5-.03.81.13,1.11.53,2.07,2.75,4.15,5.49,6.23,8.23.15.2.31.4.57.72"/>
      <path class="cls-2" d="M110.21,51.84v-2.23c0-2.22.01-4.43-.01-6.65,0-.49.14-.61.61-.6.92.03,1.85.03,2.78,0,.4-.01.5.13.5.51-.01,4.96-.01,9.91,0,14.87,0,.37-.1.49-.48.48-.78-.03-1.58-.06-2.36,0-.65.06-1.02-.21-1.39-.7-2.08-2.77-4.19-5.51-6.29-8.27-.08-.11-.18-.21-.28-.32-.19.18-.1.39-.1.58,0,2.72-.01,5.44,0,8.16,0,.41-.09.57-.53.55-.97-.03-1.94-.02-2.9,0-.33,0-.46-.08-.46-.44.01-5,.01-9.99,0-14.99,0-.36.13-.44.46-.43.95.02,1.9.03,2.84,0,.45-.02.59.29.79.55,2.09,2.74,4.17,5.48,6.24,8.23.15.2.32.39.56.7"/>
      <path class="cls-2" d="M121.99,22.41c2.11,0,4.1.52,5.95,1.54.35.19.38.36.21.69-.4.79-.78,1.59-1.14,2.4-.16.37-.31.46-.7.25-1.3-.7-2.67-1.22-4.14-1.44-.44-.07-.88-.06-1.31.08-.41.13-.74.36-.82.8-.08.47.14.82.5,1.09.42.32.92.49,1.42.66,1.28.41,2.6.7,3.83,1.29,1.84.89,2.72,2.33,2.57,4.37-.15,1.91-1.22,3.16-2.93,3.87-2.18.89-4.41.8-6.63.19-1.35-.37-2.6-.97-3.75-1.78-.35-.24-.36-.45-.18-.79.4-.77.79-1.54,1.16-2.32.17-.37.28-.47.67-.17,1.41,1.08,2.99,1.8,4.77,2.07.55.08,1.09.04,1.61-.11.49-.14.87-.46.92-1.01.05-.51-.2-.89-.63-1.15-.94-.58-2.03-.75-3.07-1.06-.77-.23-1.53-.49-2.27-.83-3.26-1.52-2.93-5.81-.5-7.42,1.36-.91,2.87-1.21,4.48-1.2"/>
      <path class="cls-2" d="M98.94,34.03c.59-1.7,1.16-3.31,1.72-4.92.7-1.99,1.39-3.99,2.07-5.99.11-.33.25-.48.63-.47,1.11.03,2.22.02,3.33,0,.42,0,.51.07.34.49-1.34,3.37-2.65,6.74-3.97,10.11-.63,1.59-1.26,3.18-1.87,4.78-.14.36-.32.49-.7.48-1.11-.02-2.22-.02-3.32,0-.38,0-.57-.1-.72-.47-1.92-4.97-3.85-9.95-5.8-14.91-.17-.44-.05-.49.35-.48,1.15.02,2.3.03,3.45,0,.42-.01.59.14.72.52,1.2,3.5,2.41,7,3.62,10.5.03.09.07.17.14.36"/>
      <path class="cls-2" d="M168.16,42.37c-.68,1.76-1.34,3.45-2,5.13-1.31,3.35-2.64,6.7-3.94,10.06-.2.52-.45.7-1,.67-1.07-.05-2.14-.02-3.2,0-.31,0-.47-.1-.58-.39-1.98-5.1-3.96-10.2-5.94-15.31,0-.02,0-.04.01-.15h.85c.99,0,1.98.04,2.96-.01.51-.03.69.17.84.62,1.21,3.56,2.45,7.11,3.71,10.77.23-.65.44-1.21.64-1.77,1.05-3.02,2.11-6.04,3.15-9.07.14-.41.31-.56.76-.55,1.22.03,2.44.01,3.74.01"/>
      <path class="cls-2" d="M189.52,42.37c2.08,0,4.15.01,6.22,0,.44,0,.6.1.58.57-.04.76-.05,1.53,0,2.29.03.53-.19.64-.67.63-1.19-.03-2.38.02-3.56-.02-.49-.02-.6.15-.6.62.02,3.71,0,7.41.02,11.12,0,.55-.15.68-.68.66-.94-.04-1.89-.04-2.84,0-.5.02-.64-.11-.64-.63.02-3.67,0-7.33.03-11,0-.59-.1-.81-.75-.78-1.12.06-2.25,0-3.38.02-.45.01-.66-.08-.63-.59.05-.78.03-1.57,0-2.36-.02-.42.11-.55.54-.54,2.11.02,4.23,0,6.34,0"/>
      <path class="cls-2" d="M133.43,67.41c0,1.43,0,2.86,0,4.29,0,3.84-2.53,6.35-6.37,6.37-.91,0-1.81-.05-2.69-.31-2.55-.75-4.21-2.92-4.24-5.68-.03-3.16,0-6.32-.02-9.49,0-.4.12-.51.51-.51,1.31,0,1.31-.02,1.31,1.27,0,2.6,0,5.2,0,7.8,0,.61.04,1.21.18,1.8.5,2.08,2.06,3.33,4.2,3.42,1.54.07,2.98-.19,4.08-1.38.97-1.05,1.2-2.34,1.21-3.7.01-2.84.02-5.68-.01-8.52,0-.57.17-.7.71-.68,1.12.04,1.12.01,1.12,1.16v4.17Z"/>
      <path class="cls-2" d="M202.26,50.36c0,2.4-.02,4.79.01,7.19,0,.58-.18.7-.71.68-.99-.04-1.97-.03-2.96,0-.37,0-.49-.1-.48-.47.01-4.97.01-9.95,0-14.92,0-.39.14-.47.49-.46,1.03.02,2.05.03,3.08,0,.45-.01.57.12.57.57-.02,2.48,0,4.95,0,7.43"/>
      <path class="cls-2" d="M112.75,30.57c0,2.46-.01,4.91.01,7.37,0,.45-.12.59-.57.57-1.03-.03-2.05-.02-3.08,0-.35,0-.5-.07-.5-.46.01-4.97.01-9.95,0-14.92,0-.37.11-.49.48-.48,1.05.02,2.09.03,3.14,0,.45-.01.53.16.52.56-.02,2.46,0,4.91,0,7.37"/>
      <path class="cls-2" d="M96.18,50.36c0,2.4-.02,4.79.02,7.19,0,.58-.18.7-.71.68-.98-.04-1.97-.03-2.96,0-.37,0-.48-.1-.48-.47.01-4.98.01-9.95,0-14.92,0-.39.14-.47.49-.46,1.03.02,2.05.03,3.08,0,.45-.01.57.12.57.57-.02,2.48-.01,4.95-.01,7.43"/>
      <path class="cls-2" d="M130.52,30.57c0-2.44,0-4.87,0-7.31,0-.45.09-.64.59-.62,1.02.04,2.05.03,3.08,0,.38,0,.48.11.48.48-.01,4.97-.01,9.95,0,14.92,0,.39-.14.47-.49.46-1.03-.02-2.06-.03-3.08,0-.45.01-.58-.12-.57-.57.02-2.46.01-4.91.01-7.37"/>
      <path class="cls-2" d="M91.45,70.14c-.13-4.24,3.38-7.93,7.94-8.05,2.16-.06,4.07.6,5.8,1.88.31.23.33.39.1.67-.27.32-.46.83-.79.96-.4.15-.66-.41-1-.64-3.82-2.59-8.96-.72-10.04,3.66-.86,3.5,1.62,7.13,5.21,7.65,2.01.29,3.79-.21,5.35-1.49.39-.32.58-.23.85.11.7.86.71.84-.19,1.52-4.74,3.53-11.5,1.27-13.02-4.36-.18-.65-.24-1.31-.21-1.9"/>
      <path class="cls-2" d="M108.76,70.01c0-2.44.01-4.88,0-7.31,0-.45.08-.63.59-.62,1.24.03,1.24,0,1.24,1.22,0,4.09.01,8.18-.02,12.27,0,.57.17.69.71.69,1.93-.03,3.87,0,5.8-.02.39,0,.52.1.52.51,0,1.21.02,1.21-1.2,1.21-2.36,0-4.72-.01-7.07.01-.46,0-.57-.14-.57-.58.02-2.46.01-4.91.01-7.37"/>
      <path class="cls-2" d="M221.38,50.33c.12,4.06-2.94,7.43-7,8.01-2.96.43-5.66-.16-7.85-2.32-3.01-2.96-3.17-7.73-.41-10.95,3.55-4.14,11.03-3.68,14.01.86.87,1.33,1.32,2.79,1.25,4.4M212.84,45.79c-2.37,0-4.38,2.02-4.37,4.49.01,2.61,1.83,4.6,4.35,4.62,2.6.02,4.23-2.07,4.31-4.51.03-2.53-1.92-4.61-4.29-4.6"/>
      <path class="cls-2" d="M151.11,50.34c.12,4.05-2.95,7.42-7,8.01-2.94.43-5.63-.15-7.81-2.28-3.05-2.99-3.23-7.75-.45-10.99,3.54-4.14,11.02-3.67,14.02.87.85,1.29,1.24,2.68,1.24,4.4M142.57,45.8c-2.43.05-4.32,1.8-4.37,4.47-.05,2.57,1.78,4.6,4.33,4.63,2.57.03,4.23-2.03,4.32-4.5.04-2.53-1.89-4.65-4.28-4.6"/>
      <path class="cls-2" d="M153.89,30.61c.12,4.06-2.95,7.43-7,8.01-2.96.43-5.66-.16-7.85-2.32-3.01-2.96-3.18-7.73-.42-10.95,3.55-4.14,11.02-3.69,14.02.85.85,1.29,1.25,2.68,1.25,4.4M145.36,26.09c-2.41.04-4.32,1.78-4.38,4.46-.05,2.56,1.76,4.6,4.33,4.64,2.56.04,4.23-2.02,4.33-4.49.04-2.53-1.88-4.65-4.28-4.6"/>
      <path class="cls-2" d="M184.46,58.22c-1.44,0-2.77,0-4.1,0-.3,0-.42-.13-.51-.39-.24-.66-.53-1.31-.76-1.97-.11-.31-.26-.44-.6-.43-1.99.02-3.99.02-5.98,0-.32,0-.46.11-.57.39-.25.68-.53,1.35-.81,2.02-.07.18-.11.38-.39.38-1.33-.01-2.65,0-4.06,0,.52-1.23,1.01-2.39,1.51-3.55,1.67-3.88,3.36-7.75,5.01-11.64.21-.5.46-.7,1.01-.67.99.05,1.98.05,2.96,0,.49-.02.7.16.88.59,1.85,4.44,3.72,8.87,5.58,13.3.26.63.52,1.26.82,1.97M177.21,52.29c.46.01.43-.15.3-.49-.44-1.1-.85-2.21-1.28-3.31-.21-.55-.43-1.09-.71-1.81-.77,1.96-1.47,3.74-2.2,5.59,1.35,0,2.61-.02,3.88,0"/>
      <path class="cls-2" d="M187.75,30.47c.66.82,1.38,1.49,2.07,2.2.21.22.33.13.44-.1.3-.57.55-1.17.73-1.78.09-.3.17-.36.44-.16.66.5,1.33.97,2.01,1.45.22.16.24.31.14.56-.3.73-.65,1.43-1.08,2.09-.17.26-.14.4.08.6.58.52,1.14,1.08,1.72,1.6.27.24.32.4.02.66-.5.44-.97.91-1.42,1.4-.27.29-.43.24-.68-.01-.49-.5-1.04-.95-1.52-1.47-.28-.3-.46-.28-.79-.06-2.07,1.41-4.3,1.74-6.65.83-2.21-.85-3.36-3.06-2.78-5.25.32-1.2,1.16-2,2.16-2.65q.76-.5.29-1.3c-.5-.85-.78-1.75-.76-2.75.02-1.58.86-2.85,2.35-3.4,1.44-.54,2.92-.55,4.37-.04,1.28.45,2.21,1.29,2.45,2.67.24,1.4-.29,2.57-1.37,3.49-.66.56-1.42.98-2.22,1.44M185.28,32.08c-.12-.11-.2-.24-.4-.1-.66.45-1.18,1-1.21,1.84-.03.81.5,1.56,1.3,1.86,1.18.44,2.23.1,3.36-.67-1.05-1-2.05-1.96-3.05-2.92M185.99,28.27c.11.16.2.21.39.11.61-.33,1.17-.72,1.56-1.29.39-.57.36-1.27-.02-1.75-.34-.43-1-.6-1.59-.4-.6.2-1,.76-1.01,1.5.05.62.28,1.26.66,1.84"/>
      <path class="cls-2" d="M147.03,69.54c.75.24,1.46.45,2.04.96,1.29,1.12,1.53,2.58,1.21,4.13-.36,1.73-1.64,2.6-3.26,3.05-.76.21-1.54.27-2.33.27-2.07,0-4.15-.01-6.23,0-.46,0-.57-.13-.57-.58.02-4.92.01-9.84,0-14.75,0-.4.07-.57.52-.56,2.26.03,4.52,0,6.77.03,1.02.01,2,.26,2.88.8,1.35.84,1.85,2.1,1.67,3.62-.16,1.43-.97,2.4-2.34,2.87-.11.04-.22.09-.37.15M145.91,76.13c1.92-.33,2.99-1.75,2.53-3.45-.34-1.29-1.37-1.8-2.55-1.98-1.94-.3-3.89-.08-5.84-.14-.35-.01-.32.21-.32.44,0,1.61,0,3.22,0,4.83,0,.37.15.43.47.43.82-.02,1.65,0,2.66,0,.9-.03,1.99.07,3.07-.12M140.16,63.78c-.35,0-.44.12-.44.45.01,1.41.01,2.82,0,4.23,0,.32.1.41.42.41,1.55-.02,3.1.02,4.65-.03.96-.03,1.89-.23,2.56-1.02,1.23-1.45.33-3.57-1.64-3.93-1.04-.19-2.09-.07-2.97-.12-.97,0-1.77.02-2.58,0"/>
    </g>
  </g>
</svg>